<svg xmlns="http://www.w3.org/2000/svg" xmlns:xlink="http://www.w3.org/1999/xlink" version="1.1" x="0px" y="0px" viewBox="0 0 100 125" style="enable-background:new 0 0 100 100;" xml:space="preserve"><g><path d="M66,20.4c-5.7,0-11.5,2.4-15.8,6.6c0,0-0.1,0.1-0.1,0.1c0,0-0.1,0-0.1-0.1c-3.9-3.7-9.1-7.4-14.2-7.4   c-5.2,0-10.4,2-14.3,5.9c-7.9,7.9-7.9,20.8,0,28.7l27,25.4c0.5,0.4,1.1,0.7,1.7,0.7c0.6,0,1.2-0.2,1.7-0.7l27-25.4   c3.9-3.9,5.9-9.1,5.9-14.3c0-5.2-2-10.4-5.9-14.3C75.1,22.1,70.6,20.4,66,20.4z M77.3,52.8l-27,25.4c-0.1,0.1-0.2,0.1-0.3,0.1   s-0.2,0-0.3-0.1L22.7,52.8c-3.4-3.4-5.3-8-5.3-12.9c0-4.9,1.9-9.5,5.3-12.9c3.4-3.4,8-5.3,12.9-5.3c3.7,0,8.1,2.4,12.8,6.9   c0.4,0.4,0.9,0.6,1.5,0.6c0.6,0,1.1-0.2,1.5-0.6c4-3.9,9.2-6.1,14.4-6.1c4.4,0,8.3,1.6,11.3,4.5c3.4,3.4,5.3,8,5.3,12.9   C82.6,44.8,80.7,49.4,77.3,52.8z"/></g></svg>
