<svg id="Layer_1" data-name="Layer 1" xmlns="http://www.w3.org/2000/svg" viewBox="0 0 1144.62 387.85"><defs><style>.cls-1{fill:#145fab;}</style></defs><title>profbit-logo</title><path class="cls-1" d="M81.12,400.95H27.69l40.72-298H121l-3.16,23.66q17.29-16.55,32.29-22.92t33.68-6.36q43.13,0,68.37,31.89t25.23,74a125.29,125.29,0,0,1-16.22,61.57Q245,294.06,217.68,310.4t-56.94,16.34a76.52,76.52,0,0,1-37-9.21,73.37,73.37,0,0,1-27.82-26.84Zm89.73-256.09q-19.28,0-33.89,8.94t-24.43,27.82a82.62,82.62,0,0,0-9.83,38.57q0,25.81,14.8,41.52t39,15.71q28.22,0,47.88-21.06T224.1,202q0-25.67-14.9-41.41T170.85,144.85Z" transform="translate(-27.69 -13.1)"/><path class="cls-1" d="M313.79,102.94H361.5l-3.81,29.68q21.46-35.3,51.54-35.3a34.18,34.18,0,0,1,15,3.84l-19.59,48.69q-6.11-2.19-9-2.19-15.66,0-28,18.15t-19.43,73.3l-10.58,82H284Z" transform="translate(-27.69 -13.1)"/><path class="cls-1" d="M521.39,97.32q29.08,0,52.84,13.44a93.64,93.64,0,0,1,37,38.1q13.24,24.67,13.24,55.35,0,50.94-36.3,86.73t-89.84,35.8q-46.53,0-74.2-28.18t-27.67-73.7q0-54.95,37.5-91.25T521.39,97.32Zm-3.72,50.74q-32.84,0-50.35,23.56t-17.52,51q0,24.47,14.31,39.41T502.25,277q33.83,0,51.55-22.76a82.43,82.43,0,0,0,17.72-52q0-24.07-15-39.11T517.66,148.06Z" transform="translate(-27.69 -13.1)"/><path class="cls-1" d="M634.47,102.94h23.26q5.62-42.72,12.53-58.46T689,20.92q11.83-7.82,29.28-7.82a73.25,73.25,0,0,1,41.91,13l-6,43.72Q743.16,60,731.93,60q-8.42,0-12.33,6.12t-8.32,36.8h33.29l-5.82,46.12H705.6L681.48,321.13H628l23.51-172.07H628.65Z" transform="translate(-27.69 -13.1)"/><path class="cls-1" d="M1044.54,79.88a31.86,31.86,0,0,0,23.36-9.73,31.86,31.86,0,0,0,9.73-23.36,31.86,31.86,0,0,0-9.73-23.36,32.92,32.92,0,0,0-46.73,0,31.86,31.86,0,0,0-9.73,23.36,31.86,31.86,0,0,0,9.73,23.36A31.86,31.86,0,0,0,1044.54,79.88Z" transform="translate(-27.69 -13.1)"/><polygon class="cls-1" points="1110.73 89.84 1121.74 8.82 1068.51 8.82 1057.44 89.84 1033.11 89.84 1031.09 89.84 980.08 89.84 950.27 308.03 1003.7 308.03 1026.89 135.97 1051.14 135.97 1027.63 308.03 1081.06 308.03 1104.46 135.97 1138.2 135.97 1144.62 89.84 1110.73 89.84"/><path class="cls-1" d="M952.46,129.21Q930.8,102,896.31,98l11.23-79.3H854l-11.33,88.82Q831,114.2,818,126.56L832.54,18.71H779.71L738.39,321.13h53.43l4.1-30.48a73.72,73.72,0,0,0,27.78,26.87,76.56,76.56,0,0,0,37.21,9.22q29.68,0,57.06-16.34t43.62-45.62a125.1,125.1,0,0,0,16.24-61.57Q977.84,161.1,952.46,129.21ZM904.77,256.35q-19.72,21.06-48,21.06-24.3,0-39.14-15.72t-14.84-41.55a82.4,82.4,0,0,1,9.86-38.55q9.86-18.87,24.41-27.81t34.06-8.93q23.5,0,38.44,15.74T924.49,202Q924.49,235.3,904.77,256.35Z" transform="translate(-27.69 -13.1)"/></svg>