<svg xmlns="http://www.w3.org/2000/svg" viewBox="0 0 38 38" class="CurrencyIcon-UEZcn gOyDnn"><g fill="none" fill-rule="evenodd"><ellipse cx="19" cy="19" fill="#3C90DF" rx="19" ry="19"></ellipse><path fill="#FFF" d="M19.8 7.13h-1.49v1.83c-3.1.3-5.97 2.37-5.97 5.63 0 3.6 2.74 4.75 5.83 5.6l.14.03v5.76a5.38 5.38 0 0 1-3.92-2.02l-2.52 2.54c1.69 1.75 4.04 2.46 6.44 2.43v1.95h1.5V28.9c3.5-.36 6.32-2.38 6.32-5.99 0-3.74-3.13-4.73-6.22-5.55l-.1-.02v-5.47c1.26 0 2.5.57 3.36 1.48l2.3-2.55a8.57 8.57 0 0 0-5.42-1.88h-.25v-1.8zm-1.49 9.8c-1.33-.57-2.49-.84-2.49-2.5 0-1.4 1.2-2.28 2.49-2.5v5zm1.5 3.72c1.29.44 2.84.9 2.84 2.52 0 1.61-1.33 2.51-2.85 2.81v-5.33z"></path></g></svg>
